<svg xmlns="http://www.w3.org/2000/svg" viewBox="0 0 220 260">
  <circle cx="110" cy="101" r="92" fill="#F4C84A" opacity=".33"/>
  <circle cx="110" cy="101" r="60" fill="#F4C84A" opacity=".28"/>
  <rect x="103" y="132" width="14" height="100" rx="7" fill="#7A4E2A"/>
  <path d="M82 64h56l12 18v70c0 12-10 22-22 22H92c-12 0-22-10-22-22V82l12-18z" fill="#7A4E2A"/>
  <path d="M91 84h38c8 0 14 6 14 14v44c0 8-6 14-14 14H91c-8 0-14-6-14-14V98c0-8 6-14 14-14z" fill="#FFF3D1"/>
  <path d="M97 91c15-10 35-4 42 13 7 18-5 38-24 41-18 3-34-10-35-28-.1-10 5-20 17-26z" fill="#F4C84A"/>
  <path d="M87 64c2-23 44-23 46 0" fill="none" stroke="#7A4E2A" stroke-width="12" stroke-linecap="round"/>
</svg>
